# xmcd
#
# Track frame offsets: 
#        150
#        23208
#        45717
#        59511
#        75050
#        102146
#        120119
#        141610
#        153217
#        169380
#        188288
#        200904
#        214300
#        228161
#        250529
#        266925
#        275612
#        285660
#        296186
#        306270
#        327534
#
# Disc length: 4569 seconds
#
# Revision: 0
# Processed by: cddbd v1.5.2PL0 Copyright (c) Steve Scherf et al.
# Submitted via: ExactAudioCopy v1.3
#
DISCID=3811d715
DTITLE=Big Bill Broonzy - Seven Classic Abums
DYEAR=2015
DGENRE=Blues, Folk
TTITLE0=Bossie Woman
TTITLE1=Texas Tornado
TTITLE2=Tell Me What Kind of Man Jesus Is
TTITLE3=Trouble in Mind
TTITLE4=See See Rider
TTITLE5=When I've Been Drinkin'
TTITLE6=Martha
TTITLE7=Swing Low, Sweet Chariot
TTITLE8=Key To The Highway
TTITLE9=Goodbye Baby Blues
TTITLE10=Backwater Blues
TTITLE11=This Train
TTITLE12=I Don't Want No Woman (To Try To Be My Boss)
TTITLE13=Martha
TTITLE14=Tell Me Who
TTITLE15=Bill Bailey
TTITLE16=Alberta
TTITLE17=Goin' Down This Road
TTITLE18=Tell Me What Kind of Man Jesus Is
TTITLE19=John Henry
TTITLE20=Glory of Love
EXTD=
EXTT0=
EXTT1=
EXTT2=
EXTT3=
EXTT4=
EXTT5=
EXTT6=
EXTT7=
EXTT8=
EXTT9=
EXTT10=
EXTT11=
EXTT12=
EXTT13=
EXTT14=
EXTT15=
EXTT16=
EXTT17=
EXTT18=
EXTT19=
EXTT20=
PLAYORDER=
